<svg xmlns="http://www.w3.org/2000/svg" width="98.111" height="98.11" viewBox="0 0 98.111 98.11"><defs><style>.a{fill:none;stroke:#000;stroke-linecap:round;stroke-linejoin:round;stroke-width:3px;}</style></defs><g transform="translate(-4.655 -4.676)"><path class="a" d="M18.288,96.312,7.377,85.4a4.171,4.171,0,0,1,0-5.9L36.256,50.623a4.171,4.171,0,0,1,5.9,0L53.066,61.534a4.171,4.171,0,0,1,0,5.9L24.187,96.312A4.171,4.171,0,0,1,18.288,96.312Z" transform="translate(0 3.752)"/><path class="a" d="M53.25,58.884l-1.59,1.6-1.4,1.391-.742-.742L39.883,51.5l-.742-.742,1.4-1.391,1.59-1.6a3.75,3.75,0,0,1,5.312,0l5.8,5.8A3.75,3.75,0,0,1,53.25,58.884Z" transform="translate(2.887 3.534)"/><line class="a" x1="3.534" y1="3.532" transform="translate(97.086 6.821)"/><path class="a" d="M79.062,19.062,52.793,45.33,47.322,50.8l4.61,4.61L57.4,49.94,83.672,23.672" transform="translate(3.58 1.128)"/><path class="a" d="M81.126,24.8l5.959.417,7.95-14.327-4.6-4.6L76.105,14.235l.417,5.96" transform="translate(6.12 0)"/><line class="a" x1="12.505" y1="12.505" transform="translate(30.936 40.409)"/><line class="a" x1="12.492" y1="12.492" transform="translate(54.54 64.013)"/><line class="a" x1="15.764" y1="15.764" transform="translate(60.999 51.038)"/><line class="a" x1="15.763" y1="15.763" transform="translate(40.639 30.678)"/><path class="a" d="M30.918,39.432A17.7,17.7,0,0,1,7.428,17.543" transform="translate(0.035 0.993)"/><path class="a" d="M17.756,7.217A17.695,17.695,0,0,1,39.645,30.7" transform="translate(1.024 0.005)"/><path class="a" d="M62.233,70.844a17.7,17.7,0,0,0,21.889,23.49" transform="translate(4.781 5.644)"/><path class="a" d="M71.066,62.022A17.695,17.695,0,0,1,94.545,83.911" transform="translate(5.675 4.751)"/><path class="a" d="M18.674,7.146l7.49,7.49A5.347,5.347,0,0,1,26.17,22.2l-3.757,3.757a5.347,5.347,0,0,1-7.564-.005l-7.49-7.49" transform="translate(0.106 0.076)"/><path class="a" d="M82.977,94.08l-7.49-7.49a5.347,5.347,0,0,1-.005-7.564l3.757-3.757a5.347,5.347,0,0,1,7.564.005l7.49,7.49" transform="translate(5.927 5.897)"/></g></svg>
