<svg xmlns="http://www.w3.org/2000/svg" xmlns:xlink="http://www.w3.org/1999/xlink" width="100" height="100" viewBox="0 0 100 100"><defs><style>.a{fill:none;}.b{clip-path:url(#a);}</style><clipPath id="a"><path class="a" d="M0,43.548H100v-100H0Z" transform="translate(0 56.452)"/></clipPath></defs><g transform="translate(0 56.452)"><g class="b" transform="translate(0 -56.452)"><g transform="translate(27.847 28.183)"><path d="M.34,18.774a1.249,1.249,0,0,0,1.768,0L6.081,14.8a19.264,19.264,0,0,0,12.752,4.765,20.575,20.575,0,0,0,14.554-6.078C44.057,2.819,43.479-22.068,43.449-23.122a1.25,1.25,0,0,0-1.235-1.213c-1.077-.012-26.337-.19-36.589,10.062-7.606,7.606-8.078,19.588-1.311,27.3L.34,17.006a1.249,1.249,0,0,0,0,1.768m31.28-7.054c-6.629,6.632-17.029,7.105-23.769,1.311l4.09-4.09L33.5,9.5a18.649,18.649,0,0,1-1.878,2.225m7.7-17.094L26.583-5.7,40.926-20.045A88.785,88.785,0,0,1,39.318-5.374M35.065,7.035,14.378,6.5l9.766-9.768,14.616.376a40.678,40.678,0,0,1-3.7,9.923M24.815-7.47l-.324-12.6a95.218,95.218,0,0,1,14.625-1.7ZM22.378-5.03,12.61,4.735,12.081-15.9A42,42,0,0,1,22-19.512ZM7.394-12.506A17.508,17.508,0,0,1,9.62-14.364l.553,21.537-4.09,4.09C.288,4.523.763-5.875,7.394-12.506" transform="translate(0.44 24.337)"/></g><g transform="translate(0 0.001)"><path d="M21.774,0a50.056,50.056,0,0,0-50,50A49.631,49.631,0,0,0-10.987,87.772H-16.83a1.25,1.25,0,0,0-1.249,1.251,1.249,1.249,0,0,0,1.249,1.249h9.279A1.249,1.249,0,0,0-6.3,89.023V80a1.25,1.25,0,0,0-1.249-1.251A1.25,1.25,0,0,0-8.8,80v6.336A47.152,47.152,0,0,1-25.727,50a47.5,47.5,0,1,1,47.5,47.5,1.251,1.251,0,0,0,0,2.5,50,50,0,1,0,0-100" transform="translate(28.226 0)"/></g></g></g></svg>
