<svg xmlns="http://www.w3.org/2000/svg" width="99.833" height="99.831" viewBox="0 0 99.833 99.831"><path d="M9.775,42.051h9.912a1.132,1.132,0,0,0,.2-.041,49.638,49.638,0,0,0,17.306,3.1A49.656,49.656,0,0,0,54.5,42.01a1.309,1.309,0,0,0,.2.039h9.912A19.272,19.272,0,0,0,83.867,22.8v-9.93A49.636,49.636,0,0,0,87.112-4.809a49.653,49.653,0,0,0-3.234-17.649V-32.39A19.273,19.273,0,0,0,64.627-51.641H54.715a1.043,1.043,0,0,0-.164.034,49.715,49.715,0,0,0-17.355-3.116,49.657,49.657,0,0,0-17.347,3.114,1.077,1.077,0,0,0-.15-.03H9.786A19.272,19.272,0,0,0-9.465-32.388v9.877A49.635,49.635,0,0,0-12.721-4.806,49.644,49.644,0,0,0-9.476,12.872V22.8A19.272,19.272,0,0,0,9.775,42.051m5.134-88.7,8.7,15.567A29.778,29.778,0,0,0,11.052-18.647l-15.566-8.7a47.759,47.759,0,0,1,19.423-19.3M37.195-31.9A27.125,27.125,0,0,1,64.289-4.806,27.125,27.125,0,0,1,37.195,22.289,27.125,27.125,0,0,1,10.1-4.807,27.122,27.122,0,0,1,37.195-31.9m41.71,4.55-15.567,8.7A29.778,29.778,0,0,0,50.78-31.081l8.7-15.567A47.764,47.764,0,0,1,78.9-27.349M59.678,36.933l-8.7-15.566A29.778,29.778,0,0,0,63.5,8.719l15.567,8.7A47.743,47.743,0,0,1,59.678,36.933M23.413,21.367l-8.7,15.566A47.747,47.747,0,0,1-4.676,17.42l15.566-8.7A29.8,29.8,0,0,0,23.413,21.367M9.775,39.555A16.774,16.774,0,0,1-6.981,22.8V18.393a50.247,50.247,0,0,0,21.34,21.163Zm7.166-1.5,8.727-15.613a29.418,29.418,0,0,0,11.525,2.336A29.452,29.452,0,0,0,48.72,22.446l8.727,15.613a47.109,47.109,0,0,1-20.252,4.554,47.128,47.128,0,0,1-20.254-4.554M81.37,22.8A16.774,16.774,0,0,1,64.614,39.555H60.032a50.247,50.247,0,0,0,21.34-21.163V22.8Zm-1.188-7.617L64.556,6.449a29.41,29.41,0,0,0,2.23-11.256,29.426,29.426,0,0,0-2.364-11.587l15.613-8.727a47.122,47.122,0,0,1,4.58,20.314,47.146,47.146,0,0,1-4.433,19.99M64.627-49.144A16.773,16.773,0,0,1,81.381-32.388v4.4a50.244,50.244,0,0,0-21.3-21.156h4.545Zm-7.381,1.379L48.513-32.142A29.412,29.412,0,0,0,37.2-34.4a29.453,29.453,0,0,0-11.318,2.255L17.146-47.764a47.116,47.116,0,0,1,20.049-4.464,47.124,47.124,0,0,1,20.05,4.464M-6.97-32.388A16.775,16.775,0,0,1,9.786-49.144h4.522A50.239,50.239,0,0,0-6.97-28.029Zm1.326,7.266L9.97-16.394A29.426,29.426,0,0,0,7.605-4.807,29.423,29.423,0,0,0,9.835,6.449L-5.791,15.183a47.12,47.12,0,0,1-4.433-19.99,47.128,47.128,0,0,1,4.58-20.314" transform="translate(12.721 54.723)"/></svg>
